<?xml version="1.0" standalone="no"?>
<!DOCTYPE svg PUBLIC "-//W3C//DTD SVG 20010904//EN"
 "http://www.w3.org/TR/2001/REC-SVG-20010904/DTD/svg10.dtd">
<svg version="1.0" xmlns="http://www.w3.org/2000/svg"
 width="500.000000pt" height="500.000000pt" viewBox="0 0 500.000000 500.000000"
 preserveAspectRatio="xMidYMid meet">

<g transform="translate(0.000000,500.000000) scale(0.100000,-0.100000)"
fill="#000000" stroke="none">
<path d="M2430 4038 c-50 -14 -1194 -676 -1231 -712 -17 -17 -40 -48 -52 -70
-22 -41 -22 -41 -22 -761 l0 -720 25 -49 c14 -27 41 -62 60 -77 40 -31 1108
-650 1185 -685 64 -30 143 -31 205 -3 25 11 297 165 604 342 365 210 574 336
602 363 77 76 75 48 72 845 -3 784 1 737 -73 810 -41 41 -1184 703 -1240 718
-48 13 -88 13 -135 -1z m260 -643 c165 -33 332 -124 456 -249 80 -80 152 -182
138 -195 -11 -11 -375 -221 -382 -221 -2 0 -31 28 -62 63 -68 73 -142 120
-225 142 -213 55 -432 -50 -528 -252 -30 -65 -32 -74 -32 -189 0 -118 1 -121
37 -195 135 -272 478 -345 704 -149 23 19 91 100 101 118 4 8 393 -224 393
-235 0 -25 -128 -179 -196 -236 -174 -147 -365 -217 -594 -217 -224 0 -406 65
-583 207 -141 114 -264 309 -309 488 -31 126 -31 314 0 438 120 483 592 781
1082 682z m710 -720 l0 -35 55 0 55 0 0 35 c0 35 0 35 45 35 45 0 45 0 45 -35
0 -34 1 -35 40 -35 l40 0 0 -44 c0 -44 0 -45 -37 -48 l-38 -3 -3 -52 -3 -53
41 0 41 0 -3 -47 c-3 -48 -3 -48 -40 -51 -36 -3 -38 -5 -38 -38 0 -34 0 -34
-45 -34 -45 0 -45 0 -45 35 l0 35 -55 0 -55 0 0 -35 c0 -35 0 -35 -45 -35 -45
0 -45 0 -45 35 0 33 -2 35 -35 35 l-35 0 0 50 0 50 35 0 35 0 0 55 0 55 -35 0
c-35 0 -35 0 -35 45 0 45 0 45 35 45 33 0 35 2 35 35 0 35 0 35 45 35 45 0 45
0 45 -35z"/>
<path d="M3400 2495 l0 -55 55 0 55 0 0 55 0 55 -55 0 -55 0 0 -55z"/>
</g>
</svg>
