<?xml version="1.0" standalone="no"?>
<!DOCTYPE svg PUBLIC "-//W3C//DTD SVG 20010904//EN"
 "http://www.w3.org/TR/2001/REC-SVG-20010904/DTD/svg10.dtd">
<svg version="1.0" xmlns="http://www.w3.org/2000/svg"
 width="728.000000pt" height="190.000000pt" viewBox="0 0 728.000000 190.000000"
 preserveAspectRatio="xMidYMid meet">

<g transform="translate(0.000000,190.000000) scale(0.100000,-0.100000)"
fill="#000000" stroke="none">
<path d="M2450 824 l0 -824 328 0 c363 0 462 8 602 47 309 85 492 285 551 603
16 82 15 285 -1 370 -15 80 -52 189 -81 238 -101 169 -247 280 -442 336 -139
40 -224 48 -599 51 l-358 3 0 -824z m688 506 c161 -23 267 -79 343 -180 54
-71 80 -161 86 -295 14 -282 -111 -457 -365 -510 -49 -10 -129 -15 -238 -15
l-164 0 0 505 0 505 138 0 c75 0 165 -4 200 -10z"/>
<path d="M6490 1028 c0 -350 5 -643 10 -683 20 -139 105 -255 232 -317 54 -26
64 -28 195 -28 137 0 139 0 208 34 39 18 87 49 109 68 l39 34 -42 73 c-22 40
-41 75 -41 78 0 2 -12 24 -26 49 l-26 44 -38 -34 c-93 -84 -210 -66 -249 37
-7 18 -11 140 -11 328 l0 299 93 0 92 1 93 133 c50 74 92 137 92 140 0 3 -83
6 -185 6 l-185 0 0 175 0 175 -180 0 -180 0 0 -612z"/>
<path d="M355 1438 c-26 -40 -57 -86 -67 -101 -50 -73 -218 -328 -251 -382
-55 -89 -47 -107 110 -266 111 -113 131 -128 186 -147 34 -12 64 -22 67 -22 3
0 4 159 2 352 -1 194 -1 416 0 493 l3 140 50 -48 c111 -106 1157 -1153 1164
-1165 12 -21 36 -4 48 36 6 20 26 72 44 115 l32 79 -20 66 c-11 37 -37 112
-58 167 -21 55 -57 156 -81 225 -23 69 -61 177 -84 240 -23 63 -54 151 -69
195 -22 64 -32 81 -52 86 -13 4 -238 7 -500 8 l-475 1 -49 -72z"/>
<path d="M1520 1436 c0 -3 9 -10 20 -16 11 -6 20 -8 20 -6 0 3 -9 10 -20 16
-11 6 -20 8 -20 6z"/>
<path d="M4680 1295 c-8 -2 -55 -9 -105 -15 -128 -18 -299 -84 -383 -148 l-24
-18 29 -45 c52 -82 125 -180 132 -177 3 2 44 22 91 45 209 104 406 96 465 -17
7 -14 16 -46 20 -71 l7 -46 -204 -6 c-160 -4 -219 -9 -280 -25 -193 -52 -284
-140 -309 -302 -28 -185 59 -348 234 -435 l70 -35 151 0 c142 0 155 2 202 25
27 13 73 46 102 74 l52 49 0 -74 0 -74 165 0 165 0 0 456 c0 486 -3 522 -52
617 -51 101 -188 186 -342 212 -81 14 -148 17 -186 10z m227 -815 c-8 -74 -25
-109 -72 -148 -46 -38 -99 -53 -184 -53 -120 -1 -192 60 -177 149 13 84 83
110 295 111 l144 1 -6 -60z"/>
<path d="M6150 1271 c-79 -26 -151 -64 -214 -116 -31 -25 -57 -45 -58 -45 -2
0 -3 33 -3 72 0 40 -3 74 -7 76 -5 1 -84 2 -178 2 l-170 0 0 -630 0 -630 180
0 180 0 0 319 c-1 264 2 331 15 382 29 113 75 181 152 226 37 21 61 27 139 31
l94 5 0 163 0 164 -37 -1 c-21 0 -63 -8 -93 -18z"/>
<path d="M1894 970 c0 -52 1 -74 3 -47 2 26 2 68 0 95 -2 26 -3 4 -3 -48z"/>
<path d="M1890 662 l5 -47 3 39 c2 21 0 42 -5 47 -4 4 -6 -13 -3 -39z"/>
<path d="M1891 554 c0 -11 3 -14 6 -6 3 7 2 16 -1 19 -3 4 -6 -2 -5 -13z"/>
<path d="M1865 370 c-3 -5 -2 -10 4 -10 5 0 13 5 16 10 3 6 2 10 -4 10 -5 0
-13 -4 -16 -10z"/>
</g>
</svg>
